{
	"meshes":[{
		"name":"Light reference",
		"primitives":[{
			"attributes":{
				"POSITION":1,
				"NORMAL":2
			},
			"indices":0
		}]
	}],
	"asset":{
		"version":"2.0",
		"generator":"Created using the official Cinema 4D glTF Exporter 1.000x284978"
	},
	"scenes":[{
		"nodes":[0]
	}],
	"accessors":[{
		"bufferView":0,
		"max":[3],
		"type":"SCALAR",
		"componentType":5123,
		"count":6,
		"byteOffset":0,
		"min":[0]
	},
	{
		"bufferView":1,
		"max":[0.1899999976158142,
		0.22499999403953553,
		0.0],
		"type":"VEC3",
		"componentType":5126,
		"count":4,
		"byteOffset":0,
		"min":[-0.1899999976158142,
		-0.22499999403953553,
		0.0]
	},
	{
		"bufferView":1,
		"max":[0.0,
		0.0,
		-1.0],
		"type":"VEC3",
		"componentType":5126,
		"count":4,
		"byteOffset":12,
		"min":[0.0,
		0.0,
		-1.0]
	}],
	"nodes":[{
		"name":"Light reference",
		"mesh":0
	}],
	"bufferViews":[{
		"buffer":0,
		"target":34963,
		"byteOffset":0,
		"byteLength":12
	},
	{
		"buffer":0,
		"target":34962,
		"byteOffset":12,
		"byteLength":96,
		"byteStride":24
	}],
	"buffers":[{
		"uri":"data:application/octet-stream;base64,",
		"byteLength":108
	}]
}